<svg width="129" height="32" viewBox="0 0 129 32" fill="none" xmlns="http://www.w3.org/2000/svg">
<rect width="129" height="32" rx="16" fill="#0078E7"/>
<path d="M26.5 7C28.2239 7 29.8772 7.68482 31.0962 8.90381C32.3152 10.1228 33 11.7761 33 13.5C33 15.11 32.41 16.59 31.44 17.73L31.71 18H32.5L37.5 23L36 24.5L31 19.5V18.71L30.73 18.44C29.5505 19.4468 28.0507 19.9999 26.5 20C24.7761 20 23.1228 19.3152 21.9038 18.0962C20.6848 16.8772 20 15.2239 20 13.5C20 11.7761 20.6848 10.1228 21.9038 8.90381C23.1228 7.68482 24.7761 7 26.5 7ZM26.5 9C24 9 22 11 22 13.5C22 16 24 18 26.5 18C29 18 31 16 31 13.5C31 11 29 9 26.5 9Z" fill="#FDFDFD"/>
<path d="M59.8418 16.9541H54.7793V20.3818H60.7207V22.5H52.1426V9.70312H60.7031V11.8389H54.7793V14.8887H59.8418V16.9541ZM65.7217 15.8291L67.3213 12.9902H70.0371L67.3301 17.6484L70.1514 22.5H67.4268L65.7305 19.5117L64.043 22.5H61.3096L64.1309 17.6484L61.4326 12.9902H64.1572L65.7217 15.8291ZM79.8193 17.833C79.8193 19.2979 79.4854 20.4727 78.8174 21.3574C78.1553 22.2363 77.2588 22.6758 76.1279 22.6758C75.167 22.6758 74.3906 22.3418 73.7988 21.6738V26.1562H71.2588V12.9902H73.6143L73.7021 13.9219C74.3174 13.1836 75.1201 12.8145 76.1104 12.8145C77.2822 12.8145 78.1934 13.248 78.8438 14.1152C79.4941 14.9824 79.8193 16.1777 79.8193 17.7012V17.833ZM77.2793 17.6484C77.2793 16.7637 77.1211 16.0811 76.8047 15.6006C76.4941 15.1201 76.04 14.8799 75.4424 14.8799C74.6455 14.8799 74.0977 15.1846 73.7988 15.7939V19.6875C74.1094 20.3145 74.6631 20.6279 75.46 20.6279C76.6729 20.6279 77.2793 19.6348 77.2793 17.6484ZM84.082 22.5H81.5332V9H84.082V22.5ZM85.7871 17.6572C85.7871 16.7139 85.9688 15.873 86.332 15.1348C86.6953 14.3965 87.2168 13.8252 87.8965 13.4209C88.582 13.0166 89.376 12.8145 90.2783 12.8145C91.5615 12.8145 92.6074 13.207 93.416 13.9922C94.2305 14.7773 94.6846 15.8438 94.7783 17.1914L94.7959 17.8418C94.7959 19.3008 94.3887 20.4727 93.5742 21.3574C92.7598 22.2363 91.667 22.6758 90.2959 22.6758C88.9248 22.6758 87.8291 22.2363 87.0088 21.3574C86.1943 20.4785 85.7871 19.2832 85.7871 17.7715V17.6572ZM88.3271 17.8418C88.3271 18.7441 88.4971 19.4355 88.8369 19.916C89.1768 20.3906 89.6631 20.6279 90.2959 20.6279C90.9111 20.6279 91.3916 20.3936 91.7373 19.9248C92.083 19.4502 92.2559 18.6943 92.2559 17.6572C92.2559 16.7725 92.083 16.0869 91.7373 15.6006C91.3916 15.1143 90.9053 14.8711 90.2783 14.8711C89.6572 14.8711 89.1768 15.1143 88.8369 15.6006C88.4971 16.0811 88.3271 16.8281 88.3271 17.8418ZM101.704 15.3721C101.358 15.3252 101.054 15.3018 100.79 15.3018C99.8291 15.3018 99.1992 15.627 98.9004 16.2773V22.5H96.3604V12.9902H98.7598L98.8301 14.124C99.3398 13.251 100.046 12.8145 100.948 12.8145C101.229 12.8145 101.493 12.8525 101.739 12.9287L101.704 15.3721ZM107.136 22.6758C105.741 22.6758 104.604 22.248 103.726 21.3926C102.853 20.5371 102.416 19.3975 102.416 17.9736V17.7275C102.416 16.7725 102.601 15.9199 102.97 15.1699C103.339 14.4141 103.86 13.834 104.534 13.4297C105.214 13.0195 105.987 12.8145 106.854 12.8145C108.155 12.8145 109.178 13.2246 109.922 14.0449C110.672 14.8652 111.047 16.0283 111.047 17.5342V18.5713H104.991C105.073 19.1924 105.319 19.6904 105.729 20.0654C106.146 20.4404 106.67 20.6279 107.303 20.6279C108.281 20.6279 109.046 20.2734 109.597 19.5645L110.845 20.9619C110.464 21.501 109.948 21.9229 109.298 22.2275C108.647 22.5264 107.927 22.6758 107.136 22.6758ZM106.846 14.8711C106.342 14.8711 105.932 15.041 105.615 15.3809C105.305 15.7207 105.105 16.207 105.018 16.8398H108.551V16.6377C108.539 16.0752 108.387 15.6416 108.094 15.3369C107.801 15.0264 107.385 14.8711 106.846 14.8711Z" fill="white"/>
</svg>
